<?xml version="1.0" standalone="no"?><!DOCTYPE svg PUBLIC "-//W3C//DTD SVG 1.1//EN" "http://www.w3.org/Graphics/SVG/1.1/DTD/svg11.dtd"><svg class="icon" width="200px" height="200.00px" viewBox="0 0 1024 1024" version="1.1" xmlns="http://www.w3.org/2000/svg"><path fill="#bfbfbf" d="M513.896631 1018.761686c-279.798201 0-507.574528-227.776327-507.574528-507.574528s227.595696-507.574528 507.574528-507.574528 507.574528 227.776327 507.574528 507.574528-227.776327 507.574528-507.574528 507.574528z m0-952.831187c-245.658846 0-445.437291 199.778444-445.437291 445.256659s199.778444 445.256659 445.256659 445.256659S959.15329 756.665373 959.15329 511.187158 759.374846 65.930499 513.896631 65.930499zM303.822191 811.757982c-12.824837 0-25.107779-4.335156-34.861881-12.644205-16.256835-13.908626-22.578938-36.306932-16.437466-58.524608l65.207973-237.71106c8.489681-39.5583 27.455989-77.671547 55.27324-110.365849 22.578938-26.552831 49.312401-47.686717 79.297231-63.040395v0.180631c9.754101-4.877051 50.034927-23.482096 245.839478-113.436585 20.953255-9.57347 44.074087-7.044629 60.511554 6.863997 16.256835 13.908626 22.578938 36.306932 16.437467 58.524608-57.260187 207.72623-69.181866 250.535897-72.433234 261.012524h0.180632c-10.115364 32.152408-26.733463 61.775975-49.312401 88.509437-27.63662 32.513671-62.317869 57.440818-100.069854 72.252602l-224.163697 102.779326c-8.309049 3.793262-16.979361 5.599577-25.469042 5.599577z m177.018874-426.651614l-0.541894 0.180631c-22.217675 11.199153-42.990298 27.817252-59.96966 47.686718-21.133886 24.927148-35.584406 53.828188-41.906509 83.632386l-0.541894 1.986947L316.105133 743.659905l213.867702-97.902276c28.359146-10.83789 54.731346-29.804198 75.865232-54.731346 16.979361-19.869466 29.98483-42.990298 37.390721-66.833656l0.180632-0.541895c3.251367-11.199153 40.82272-146.853413 67.736814-244.575057-92.302699 42.267772-220.009173 100.973011-230.305169 106.030693zM513.896631 569.892397c-32.333039 0-58.705239-26.3722-58.705239-58.705239s26.3722-58.705239 58.705239-58.705239S572.60187 478.854119 572.60187 511.187158s-26.3722 58.705239-58.705239 58.705239z m0-62.317869c-1.986947 0-3.61263 1.625684-3.61263 3.61263s1.625684 3.61263 3.61263 3.61263 3.61263-1.625684 3.61263-3.61263-1.806315-3.61263-3.61263-3.61263z" /></svg>