<?xml version="1.0" standalone="no"?><!DOCTYPE svg PUBLIC "-//W3C//DTD SVG 1.1//EN" "http://www.w3.org/Graphics/SVG/1.1/DTD/svg11.dtd"><svg class="icon" width="200px" height="200.00px" viewBox="0 0 1024 1024" version="1.1" xmlns="http://www.w3.org/2000/svg"><path fill="#bfbfbf" d="M1011.536426 357.650379c24.02399-42.629035-37.571353-77.310284-61.595343-34.681249L908.576469 409.31099c-21.133886-87.786911-68.098077-167.806668-135.834892-229.582643-84.174281-76.768389-193.095078-119.036162-307.073558-119.036161C214.228965 60.692186 9.934733 264.986417 9.934733 516.24484S214.228965 971.797495 465.487388 971.797495c154.620568 0 297.319457-77.490916 381.855-207.184336 29.804198-45.699771-29.442935-84.354913-59.247133-38.655142-71.530076 109.643323-192.011289 175.031928-322.607867 175.031928-212.242018 0-384.925736-172.683718-384.925737-384.925736s172.683718-384.745105 384.925737-384.745105c188.218028 0 345.548068 133.30605 378.423002 315.021344l-108.920797-54.189451c-44.615982-25.107779-79.297231 36.487564-34.681249 61.595343l172.86435 90.135121c22.398307 11.379785 38.835774 7.767155 48.228611-13.547363L1011.536426 357.650379zM596.987123 591.568178h-96.095961v-40.100194h96.095961c41.364615 0 41.364615-64.84671 0-64.84671h-88.148174l75.6846-75.684601 37.932616-37.932616c21.314518-21.314518-24.565885-67.014288-45.880402-45.880402l-8.128418 8.128418-75.323337 75.323337-27.817252 27.817252-103.140589-103.140589c-21.314518-21.314518-67.014288 24.565885-45.880402 45.880402l105.488798 105.488799h-86.883753c-34.500617 0-34.500617 64.84671 0 64.84671h101.153642v40.100194h-101.153642c-34.500617 0-34.500617 64.84671 0 64.84671h101.153642v82.187335c0 34.500617 64.84671 34.500617 64.84671 0v-82.187335h96.095961c41.364615 0 41.364615-64.84671 0-64.84671z" /></svg>