<?xml version="1.0" standalone="no"?><!DOCTYPE svg PUBLIC "-//W3C//DTD SVG 1.1//EN" "http://www.w3.org/Graphics/SVG/1.1/DTD/svg11.dtd"><svg class="icon" width="200px" height="200.00px" viewBox="0 0 1024 1024" version="1.1" xmlns="http://www.w3.org/2000/svg"><path fill="#515151" d="M714.397601 13.547363h-466.029282C180.450873 13.547363 125.177633 68.639972 125.177633 136.557418v752.872111c0 67.917446 55.27324 123.010055 123.010054 123.010055h566.821662c67.917446 0 123.010055-55.27324 123.010055-123.010055V246.562004L714.397601 13.547363z m14.089257 107.295114l106.391957 110.907743H767.683895c-20.772623 0-39.197037-27.455989-39.197037-58.88587V120.842477zM815.009349 948.3154H248.187687c-32.513671 0-58.885871-26.3722-58.88587-58.885871V136.557418c0-32.513671 26.3722-58.885871 58.88587-58.885871h415.994356v95.192803c0 67.917446 46.422297 123.010055 103.32122 123.010055h106.391957v593.555124c0 32.513671-26.3722 58.885871-58.885871 58.885871zM664.904569 453.926971h-81.103546l92.663962-92.663962c13.005468-13.005468 13.005468-34.139354 0-47.144822-13.005468-13.005468-34.139354-13.005468-47.144823 0l-97.541012 97.541012-97.541013-97.541012c-13.005468-13.005468-34.139354-13.005468-47.144822 0-13.005468 13.005468-13.005468 34.139354 0 47.144822l92.663961 92.663962h-81.103545c-17.340624 0-31.429882 14.089257-31.429882 31.429882v3.973893c0 17.340624 14.089257 31.429882 31.429882 31.429882H498.542953v41.725878h-99.889222c-17.340624 0-31.429882 14.089257-31.429882 31.429881v3.973893c0 17.340624 14.089257 31.429882 31.429882 31.429882H498.542953v97.541013c0 16.076204 13.005468 29.262304 29.262304 29.262304h8.309049c16.076204 0 29.262304-13.005468 29.262304-29.262304v-97.541013h99.889222c17.340624 0 31.429882-14.089257 31.429882-31.429882v-3.973893c0-17.340624-14.089257-31.429882-31.429882-31.429881H565.37661v-41.725878h99.889222c17.340624 0 31.429882-14.089257 31.429882-31.429882v-3.973893c-0.361263-17.521256-14.45052-31.429882-31.791145-31.429882z" /></svg>