<?xml version="1.0" standalone="no"?><!DOCTYPE svg PUBLIC "-//W3C//DTD SVG 1.1//EN" "http://www.w3.org/Graphics/SVG/1.1/DTD/svg11.dtd"><svg class="icon" width="200px" height="200.00px" viewBox="0 0 1024 1024" version="1.1" xmlns="http://www.w3.org/2000/svg"><path fill="#bfbfbf" d="M899.906156 230.4858h-773.10284c-15.714941 0-30.707356 3.251367-44.254718 8.850944v-21.314518c0-24.385253 19.869466-44.254719 44.254718-44.254719h576.395132c51.841242 0 51.841242-70.988181 0-70.988181h-576.2145C63.401658 102.959958 11.741048 154.620568 11.741048 218.202858v593.013229c0 63.58229 51.66061 115.2429 115.2429 115.2429h773.10284c63.58229 0 115.2429-51.66061 115.2429-115.2429V345.7287c-0.180632-63.401658-51.841242-115.2429-115.423532-115.2429z m0 625.165638h-773.10284c-24.385253 0-44.254719-19.869466-44.254718-44.254719v-466.029282c0.180632-24.204622 20.050097-43.893456 44.254718-43.893456h773.10284c24.385253 0 44.254719 19.869466 44.254719 44.254719v118.85553H520.399365c-62.859764 0-113.978479 50.938084-113.978479 113.978479s50.938084 113.978479 113.978479 113.97848h423.76151v118.85553c0 24.385253-19.869466 44.254719-44.254719 44.254719zM616.675957 578.562709c0 47.144823-38.113247 85.25807-85.25807 85.258071S446.159817 625.707532 446.159817 578.562709s38.113247-85.25807 85.25807-85.25807 85.25807 38.113247 85.25807 85.25807z" /></svg>