<?xml version="1.0" standalone="no"?><!DOCTYPE svg PUBLIC "-//W3C//DTD SVG 1.1//EN" "http://www.w3.org/Graphics/SVG/1.1/DTD/svg11.dtd"><svg class="icon" width="200px" height="200.00px" viewBox="0 0 1024 1024" version="1.1" xmlns="http://www.w3.org/2000/svg"><path fill="#515151" d="M1010.272006 356.205327h-65.388605v-159.858881c0-63.58229-51.841242-115.423531-115.423532-115.423532h-159.858881V15.534309h159.858881c99.708591 0 180.812136 81.103546 180.812137 180.812137v159.858881zM355.844064 1010.633269h-159.858881c-99.708591 0-180.812136-81.103546-180.812137-180.812137v-160.039513h65.388605v160.039513c0 63.58229 51.841242 115.423531 115.423532 115.423532H355.844064v65.388605zM80.561651 356.205327H15.173046v-159.858881C15.173046 96.637855 96.276592 15.534309 195.985183 15.534309H355.844064v65.388605h-159.858881c-63.58229 0-115.423531 51.841242-115.423532 115.423532v159.858881zM829.459869 1010.633269h-159.858881v-65.388605h159.858881c63.58229 0 115.423531-51.841242 115.423532-115.423532v-160.039513h65.388605v160.039513c0 99.708591-81.103546 180.812136-180.812137 180.812137zM7.044629 479.757276h1011.175163v65.388605H7.044629z" /></svg>