<?xml version="1.0" standalone="no"?><!DOCTYPE svg PUBLIC "-//W3C//DTD SVG 1.1//EN" "http://www.w3.org/Graphics/SVG/1.1/DTD/svg11.dtd"><svg class="icon" width="200px" height="200.00px" viewBox="0 0 1024 1024" version="1.1" xmlns="http://www.w3.org/2000/svg"><path fill="#515151" d="M286.481566 730.654436l59.789028-59.608396c11.199153-11.199153 11.199153-29.442935 0-40.642089-11.199153-11.199153-29.442935-11.199153-40.642088 0l-59.789028 59.608397-59.789028-59.608397c-11.199153-11.199153-29.442935-11.199153-40.642089 0-11.199153 11.199153-11.199153 29.442935 0 40.642089l59.789028 59.608396-59.789028 59.789028c-11.199153 11.199153-11.199153 29.442935 0 40.642089 11.199153 11.199153 29.442935 11.199153 40.642089 0l59.789028-59.789028 59.789028 59.789028c11.199153 11.199153 29.442935 11.199153 40.642088 0 11.199153-11.199153 11.199153-29.442935 0-40.642089l-59.789028-59.789028zM1005.214324 869.018169L804.532722 697.237608c-2.528841-2.167578-5.238314-3.793262-8.128418-5.057682 75.142706-94.83154 105.488799-223.26054 70.265655-348.438173C808.145352 136.557418 592.471335 15.534309 384.925736 73.878285c-100.250485 28.359146-183.70224 93.928382-234.640324 184.966661-24.565885 43.712824-39.738931 91.038278-46.241665 139.26689 0 58.343976 71.891339 58.343976 71.891339 0 5.96084-36.306932 17.701887-71.530076 36.306932-104.585641 41.725878-74.42018 109.823955-128.067737 192.011289-151.369201 3.251367-0.903158 6.502734-1.806315 9.754102-2.528841C580.549656 98.263539 751.427059 196.707709 798.391251 362.888693c45.880402 162.568354-43.712824 331.097548-200.500971 386.912683-52.202505 9.57347-39.197037 80.561651 13.005469 70.988181 53.105662-17.159993 100.069854-44.615982 139.447521-79.839125 1.986947 3.793262 4.696419 7.22526 8.128418 10.115364L959.15329 922.846357c14.811783 12.824837 37.21009 11.018522 50.034927-3.793261 12.644205-14.811783 10.83789-37.21009-3.973893-50.034927zM256.496737 474.1577c-138.00247 0-250.355265 112.352796-250.355266 250.355265 0 62.679132 23.301464 119.758688 61.414712 163.652143 23.843359 26.552831 63.762921-9.392838 39.919562-35.945669-29.623567-34.500617-47.686717-78.935968-47.686717-127.706474 0-108.378903 88.148174-196.707709 196.707709-196.707708S453.204445 615.953431 453.204445 724.512965s-88.148174 196.88834-196.707708 196.88834c-16.256835 0-31.971776-2.167578-46.964192-5.960839-32.874934-5.238314-41.545246 48.228612-8.670312 53.466925 17.882519 4.154525 36.487564 6.322103 55.634504 6.322103 138.00247 0 250.355265-112.352796 250.355265-250.355266S394.679838 474.1577 256.496737 474.1577z" /></svg>