<?xml version="1.0" standalone="no"?><!DOCTYPE svg PUBLIC "-//W3C//DTD SVG 1.1//EN" "http://www.w3.org/Graphics/SVG/1.1/DTD/svg11.dtd"><svg class="icon" width="200px" height="200.00px" viewBox="0 0 1024 1024" version="1.1" xmlns="http://www.w3.org/2000/svg"><path fill="#bfbfbf" d="M451.036867 788.817781H112.352796c-21.856412 0-39.738931-17.882519-39.738931-39.738931V309.060504c0-22.037044 17.882519-39.738931 39.738931-39.738931h749.620744c22.037044 0 39.738931 17.882519 39.738931 39.738931v109.101429c0 42.629035 61.595343 42.629035 61.595343 0v-109.101429c0-55.995766-45.519139-101.334274-101.334274-101.334274h-749.620744c-55.815135 0-101.334274 45.519139-101.334274 101.334274v439.837714c0 55.995766 45.519139 101.334274 101.334274 101.334275h338.684071c45.519139 0.180632 45.519139-61.414712 0-61.414712zM668.155936 351.147645h-123.010055c-55.995766 0-101.334274 45.519139-101.334274 101.334274v111.269007c0 45.880402 61.595343 45.880402 61.595343 0v-111.269007c0-22.037044 17.882519-39.738931 39.738931-39.738931h123.010055c47.144823 0 47.144823-61.595343 0-61.595343zM331.27818 353.315223H158.775093c-39.016405 0-39.016405 61.595343 0 61.595343h172.503087c46.241665 0 46.241665-61.595343 0-61.595343zM298.041983 560.318928c41.725878 0 41.725878-61.595343 0-61.595344H164.916564c-47.325454 0-47.325454 61.595343 0 61.595344H298.041983zM158.775093 705.727289h172.503087c43.893456 0 43.893456-61.595343 0-61.595343H158.775093c-39.016405 0-39.016405 61.595343 0 61.595343zM1007.20127 830.72429l-77.129652-77.129652c14.631152-27.094726 22.940201-57.982713 22.940201-90.857647 0-105.850062-86.161228-192.011289-192.01129-192.01129-105.850062 0-192.011289 86.161228-192.011289 192.01129 0 105.850062 86.161228 192.011289 192.011289 192.011289 50.757453 0 96.818487-19.688834 131.138473-52.021873l71.530075 71.530076c32.513671 32.513671 76.045863-11.018522 43.532193-43.532193zM760.819898 792.972306c-71.891339 0-130.415946-58.524608-130.415947-130.415947s58.524608-130.415946 130.415947-130.415946c71.891339 0 130.415946 58.524608 130.415946 130.415946S832.711237 792.972306 760.819898 792.972306z" /></svg>