<?xml version="1.0" standalone="no"?><!DOCTYPE svg PUBLIC "-//W3C//DTD SVG 1.1//EN" "http://www.w3.org/Graphics/SVG/1.1/DTD/svg11.dtd"><svg class="icon" width="200px" height="200.00px" viewBox="0 0 1024 1024" version="1.1" xmlns="http://www.w3.org/2000/svg"><path fill="#bfbfbf" d="M515.522314 1020.38737C302.015876 1020.38737 128.248368 846.619862 128.248368 632.932792c0-89.954489 31.610513-177.741401 88.870701-246.923267l50.396189 41.725878c-47.686717 57.62145-73.878285 130.415946-73.878285 205.197389 0 177.560769 144.324572 321.885341 321.885341 321.885342 177.560769 0 322.065973-144.324572 322.065973-321.885342 0-74.781443-26.191568-147.575939-73.878285-205.197389l50.39619-41.725878c57.260187 69.181866 88.8707 156.968778 88.8707 246.923267 0.180632 213.68707-173.767507 387.454578-387.454578 387.454578zM517.328629 485.898748c-15.173046 0-30.346093-5.780208-41.906509-17.340625L222.899277 215.312754c-22.75957-22.940201-23.120833-60.330923-0.541895-83.632387L313.215029 37.932616c16.256835-16.79873 44.977245-28.901041 68.278709-28.901041h263.721997c23.120833 0 51.841242 11.921679 68.278708 28.359146l96.999118 96.999118c11.199153 11.199153 17.340624 26.010937 17.340625 41.90651 0 15.895572-6.141471 30.707356-17.340625 41.906509L559.054507 468.558123c-11.379785 11.560416-26.552831 17.340624-41.725878 17.340625zM273.295467 173.044981l244.033162 244.575058L759.555477 176.115717l-92.48333-92.48333c-4.154525-4.154525-16.076204-9.031575-21.856412-9.031576h-263.721997c-5.599577 0-17.340624 5.057682-21.314518 9.031576l-86.883753 89.412594z" /></svg>