<?xml version="1.0" standalone="no"?><!DOCTYPE svg PUBLIC "-//W3C//DTD SVG 1.1//EN" "http://www.w3.org/Graphics/SVG/1.1/DTD/svg11.dtd"><svg class="icon" width="200px" height="200.00px" viewBox="0 0 1024 1024" version="1.1" xmlns="http://www.w3.org/2000/svg"><path fill="#515151" d="M947.954137 427.37414v464.222967c0 34.139354-27.817252 61.956606-61.956607 61.956606H138.905627c-34.139354 0-61.956606-27.817252-61.956606-61.956606V144.505204c0-34.139354 27.817252-61.956606 61.956606-61.956606h464.222967c45.157876 0 45.157876-64.666079 0-64.666079h-464.222967C69.001235 17.882519 12.282942 74.781443 12.282942 144.505204v747.091903c0 69.723761 56.718292 126.622685 126.622685 126.622685h747.091903c69.904392 0 126.622685-56.718292 126.622685-126.622685v-464.222967c0-42.990298-64.666079-42.990298-64.666078 0zM610.895749 465.306756L1003.227377 73.155759c33.958723-33.958723-11.741048-79.658494-45.699771-45.69977L565.195978 419.606985c-37.21009 37.21009 8.489681 82.909861 45.699771 45.699771z" /></svg>